<svg width="180" height="65" viewBox="0 0 180 65" fill="none" xmlns="http://www.w3.org/2000/svg">
<rect y="8" width="180" height="50" fill="white"/>
<path d="M27.504 55H23.184V24.52H12.48V20.728H38.16V24.52H27.504V55ZM52.7839 20.728C55.6319 20.728 57.9679 21.096 59.7919 21.832C61.6479 22.536 63.0239 23.608 63.9199 25.048C64.8159 26.488 65.2639 28.296 65.2639 30.472C65.2639 32.296 64.9279 33.816 64.2559 35.032C63.5839 36.248 62.7199 37.224 61.6639 37.96C60.6399 38.664 59.5519 39.224 58.3999 39.64L67.8079 55H62.7679L54.4639 40.84H47.6479V55H43.3279V20.728H52.7839ZM52.5439 24.472H47.6479V37.192H52.7839C54.6399 37.192 56.1599 36.952 57.3439 36.472C58.5279 35.96 59.3919 35.224 59.9359 34.264C60.5119 33.304 60.7999 32.104 60.7999 30.664C60.7999 29.16 60.4959 27.96 59.8879 27.064C59.3119 26.168 58.4159 25.512 57.1999 25.096C55.9839 24.68 54.4319 24.472 52.5439 24.472ZM82.8353 55H70.4513V52.504L74.4833 51.592V24.184L70.4513 23.224V20.728H82.8353V23.224L78.8033 24.184V51.592L82.8353 52.504V55ZM98.5249 20.728C103.005 20.728 106.269 21.608 108.317 23.368C110.365 25.128 111.389 27.608 111.389 30.808C111.389 32.216 111.149 33.576 110.669 34.888C110.221 36.168 109.469 37.32 108.413 38.344C107.357 39.368 105.949 40.184 104.189 40.792C102.429 41.368 100.269 41.656 97.7089 41.656H93.7729V55H89.4529V20.728H98.5249ZM98.1409 24.424H93.7729V37.96H97.2289C99.4049 37.96 101.213 37.736 102.653 37.288C104.093 36.808 105.165 36.056 105.869 35.032C106.573 34.008 106.925 32.664 106.925 31C106.925 28.792 106.221 27.144 104.813 26.056C103.405 24.968 101.181 24.424 98.1409 24.424ZM137.955 45.832C137.955 47.88 137.459 49.624 136.467 51.064C135.475 52.472 134.051 53.56 132.195 54.328C130.371 55.096 128.211 55.48 125.715 55.48C124.435 55.48 123.203 55.416 122.019 55.288C120.867 55.16 119.811 54.984 118.851 54.76C117.891 54.504 117.043 54.2 116.307 53.848V49.72C117.459 50.232 118.883 50.696 120.579 51.112C122.307 51.528 124.083 51.736 125.907 51.736C127.603 51.736 129.027 51.512 130.179 51.064C131.331 50.616 132.195 49.976 132.771 49.144C133.347 48.312 133.635 47.336 133.635 46.216C133.635 45.096 133.395 44.152 132.915 43.384C132.435 42.616 131.603 41.912 130.419 41.272C129.267 40.6 127.651 39.896 125.571 39.16C124.099 38.616 122.803 38.04 121.683 37.432C120.595 36.792 119.683 36.072 118.947 35.272C118.211 34.472 117.651 33.56 117.267 32.536C116.915 31.512 116.739 30.328 116.739 28.984C116.739 27.16 117.203 25.608 118.131 24.328C119.059 23.016 120.339 22.008 121.971 21.304C123.635 20.6 125.539 20.248 127.683 20.248C129.571 20.248 131.299 20.424 132.867 20.776C134.435 21.128 135.859 21.592 137.139 22.168L135.795 25.864C134.611 25.352 133.315 24.92 131.907 24.568C130.531 24.216 129.091 24.04 127.587 24.04C126.147 24.04 124.947 24.248 123.987 24.664C123.027 25.08 122.307 25.672 121.827 26.44C121.347 27.176 121.107 28.04 121.107 29.032C121.107 30.184 121.347 31.144 121.827 31.912C122.307 32.68 123.091 33.368 124.179 33.976C125.267 34.584 126.739 35.24 128.595 35.944C130.611 36.68 132.307 37.48 133.683 38.344C135.091 39.176 136.147 40.184 136.851 41.368C137.587 42.552 137.955 44.04 137.955 45.832ZM153.787 37.576L162.715 20.728H167.371L155.947 41.704V55H151.627V41.896L140.203 20.728H144.907L153.787 37.576Z" fill="#2DD4BE"/>
</svg>
