<svg width="500" height="150" viewBox="0 0 500 150" fill="none" xmlns="http://www.w3.org/2000/svg">
<rect width="500" height="150" fill="white"/>
<path d="M117.3 111H108.3V47.5H86V39.6H139.5V47.5H117.3V111ZM169.966 39.6C175.9 39.6 180.766 40.3667 184.566 41.9C188.433 43.3667 191.3 45.6 193.166 48.6C195.033 51.6 195.966 55.3667 195.966 59.9C195.966 63.7 195.266 66.8667 193.866 69.4C192.466 71.9333 190.666 73.9667 188.466 75.5C186.333 76.9667 184.066 78.1333 181.666 79L201.266 111H190.766L173.466 81.5H159.266V111H150.266V39.6H169.966ZM169.466 47.4H159.266V73.9H169.966C173.833 73.9 177 73.4 179.466 72.4C181.933 71.3333 183.733 69.8 184.866 67.8C186.066 65.8 186.666 63.3 186.666 60.3C186.666 57.1667 186.033 54.6667 184.766 52.8C183.566 50.9333 181.7 49.5667 179.166 48.7C176.633 47.8333 173.4 47.4 169.466 47.4ZM232.573 111H206.773V105.8L215.173 103.9V46.8L206.773 44.8V39.6H232.573V44.8L224.173 46.8V103.9L232.573 105.8V111ZM265.26 39.6C274.593 39.6 281.393 41.4333 285.66 45.1C289.927 48.7667 292.06 53.9333 292.06 60.6C292.06 63.5333 291.56 66.3667 290.56 69.1C289.627 71.7667 288.06 74.1667 285.86 76.3C283.66 78.4333 280.727 80.1333 277.06 81.4C273.393 82.6 268.893 83.2 263.56 83.2H255.36V111H246.36V39.6H265.26ZM264.46 47.3H255.36V75.5H262.56C267.093 75.5 270.86 75.0333 273.86 74.1C276.86 73.1 279.093 71.5333 280.56 69.4C282.027 67.2667 282.76 64.4667 282.76 61C282.76 56.4 281.293 52.9667 278.36 50.7C275.427 48.4333 270.793 47.3 264.46 47.3ZM347.407 91.9C347.407 96.1667 346.374 99.8 344.307 102.8C342.24 105.733 339.274 108 335.407 109.6C331.607 111.2 327.107 112 321.907 112C319.24 112 316.674 111.867 314.207 111.6C311.807 111.333 309.607 110.967 307.607 110.5C305.607 109.967 303.84 109.333 302.307 108.6V100C304.707 101.067 307.674 102.033 311.207 102.9C314.807 103.767 318.507 104.2 322.307 104.2C325.84 104.2 328.807 103.733 331.207 102.8C333.607 101.867 335.407 100.533 336.607 98.8C337.807 97.0667 338.407 95.0333 338.407 92.7C338.407 90.3667 337.907 88.4 336.907 86.8C335.907 85.2 334.174 83.7333 331.707 82.4C329.307 81 325.94 79.5333 321.607 78C318.54 76.8667 315.84 75.6667 313.507 74.4C311.24 73.0667 309.34 71.5667 307.807 69.9C306.274 68.2333 305.107 66.3333 304.307 64.2C303.574 62.0667 303.207 59.6 303.207 56.8C303.207 53 304.174 49.7667 306.107 47.1C308.04 44.3667 310.707 42.2667 314.107 40.8C317.574 39.3333 321.54 38.6 326.007 38.6C329.94 38.6 333.54 38.9667 336.807 39.7C340.074 40.4333 343.04 41.4 345.707 42.6L342.907 50.3C340.44 49.2333 337.74 48.3333 334.807 47.6C331.94 46.8667 328.94 46.5 325.807 46.5C322.807 46.5 320.307 46.9333 318.307 47.8C316.307 48.6667 314.807 49.9 313.807 51.5C312.807 53.0333 312.307 54.8333 312.307 56.9C312.307 59.3 312.807 61.3 313.807 62.9C314.807 64.5 316.44 65.9333 318.707 67.2C320.974 68.4667 324.04 69.8333 327.907 71.3C332.107 72.8333 335.64 74.5 338.507 76.3C341.44 78.0333 343.64 80.1333 345.107 82.6C346.64 85.0667 347.407 88.1667 347.407 91.9ZM380.39 74.7L398.99 39.6H408.69L384.89 83.3V111H375.89V83.7L352.09 39.6H361.89L380.39 74.7Z" fill="#4DB5A6"/>
</svg>
